<svg xmlns="http://www.w3.org/2000/svg" xmlns:xlink="http://www.w3.org/1999/xlink" version="1.1" x="0px" y="0px" viewBox="0 0 150 187.5" style="enable-background:new 0 0 150 150;" xml:space="preserve"><style type="text/css">
	.st0{fill:none;}
</style><g><path d="M121.7,84.5c8.4,0,16.1-5.7,18.3-14.2c0.1-0.5-0.2-1.1-0.7-1.2c-7.3-1.9-14.7,0.8-19.3,6.4c0.1-1.3,0.2-2.5,0.2-3.8   c0-1.8-0.1-3.6-0.3-5.4c9.5-2.1,16-11.3,14.6-21.1c-0.1-0.6-0.6-0.9-1.1-0.8c-7.5,1.1-13.4,6.4-15.4,13.3c-0.9-3-2.2-5.8-3.7-8.5   c8-5.6,10.5-16.6,5.5-25.1c-0.3-0.5-0.9-0.6-1.4-0.4c-6.5,3.9-9.9,11.1-9.1,18.3c-2-2.4-4.3-4.6-6.7-6.5c5.3-8.2,3.4-19.4-4.5-25.3   c-0.4-0.3-1.1-0.2-1.4,0.2c-4.5,6.1-4.9,14-1.4,20.4c-6.1-3.2-13-5.1-20.2-5.2c-7.3,0.2-14.1,2-20.2,5.2c3.5-6.3,3.1-14.3-1.4-20.4   c-0.3-0.4-1-0.5-1.4-0.2c-7.9,5.9-9.9,17.1-4.5,25.3c-2.5,1.9-4.7,4.1-6.7,6.6c0.9-7.2-2.5-14.5-9-18.4c-0.5-0.3-1.1-0.1-1.4,0.4   c-5.1,8.5-2.6,19.5,5.5,25.1c-1.5,2.7-2.8,5.5-3.7,8.5c-2-6.9-7.9-12.3-15.4-13.3c-0.5-0.1-1,0.3-1.1,0.8   c-1.4,9.8,5.1,19,14.6,21.1c-0.2,1.8-0.3,3.6-0.3,5.4c0,1.3,0.1,2.6,0.2,3.8c-4.5-5.6-12-8.3-19.3-6.4c-0.5,0.1-0.8,0.7-0.7,1.2   c2.1,8.5,9.8,14.2,18.3,14.2c1.1,0,2.2-0.1,3.3-0.3c0.8,3,2,5.9,3.4,8.6c-6.3-3.4-14.2-3-20.2,1.5c-0.4,0.3-0.5,1-0.2,1.4   c3.7,4.9,9.4,7.5,15.1,7.5c3.5,0,7-1,10.1-2.9c1.9,2.4,4,4.6,6.4,6.6c-7.1-0.8-14.2,2.6-18.1,9.1c-0.3,0.5-0.1,1.1,0.3,1.4   c3,1.8,6.3,2.6,9.6,2.6c6,0,11.9-2.8,15.5-8c3.4,1.9,7,3.3,10.9,4.3V139c0,0.6,0.4,1,1,1H74v-13.7c0-0.6,0.4-1,1-1s1,0.4,1,1V140   h8.7c0.6,0,1-0.4,1-1v-22.8c3.9-1,7.5-2.5,10.8-4.3h0c3.6,5.2,9.5,8,15.5,8c3.3,0,6.6-0.8,9.6-2.6c0.5-0.3,0.6-0.9,0.3-1.4   c-3.5-5.8-9.6-9.2-16.1-9.2c-0.7,0-1.3,0-2,0.1c2.3-2,4.5-4.2,6.4-6.6c3.1,2,6.6,2.9,10.1,2.9c5.8,0,11.5-2.6,15.1-7.5   c0.3-0.4,0.2-1.1-0.2-1.4c-6-4.5-13.9-4.9-20.2-1.5c1.4-2.7,2.5-5.6,3.3-8.6C119.5,84.4,120.6,84.5,121.7,84.5z M117.4,79.6   C117.4,79.6,117.4,79.6,117.4,79.6c-0.1,0.1-0.1,0.3-0.1,0.4v0c0,0,0,0,0,0c-0.2,0.8-0.3,1.7-0.6,2.5c0,0.1-0.1,0.1-0.1,0.2   c0,0,0,0.1,0,0.1c-1.2,4.5-3.1,8.8-5.6,12.7c0,0,0,0-0.1,0.1c-0.1,0.1-0.2,0.3-0.3,0.4c-0.4,0.7-0.9,1.3-1.4,2   c-0.1,0.1-0.2,0.1-0.2,0.2c-0.1,0.1-0.1,0.2-0.1,0.3c0,0,0,0,0,0c-2.8,3.7-6.2,6.9-10.1,9.5c0,0,0,0,0,0c0,0,0,0-0.1,0   c-0.2,0.1-0.3,0.2-0.4,0.3c0,0,0,0,0,0c-0.6,0.4-1.3,0.8-1.9,1.2c-0.1,0-0.2,0.1-0.3,0.1c-0.1,0-0.1,0.1-0.2,0.1h0   c-3.2,1.9-6.7,3.3-10.5,4.3V93.6c0-0.6-0.4-1-1-1H65.3c-0.6,0-1,0.4-1,1v20.6c-3.7-1-7.3-2.5-10.5-4.4c0-0.1-0.1-0.1-0.1-0.1   c-0.1-0.1-0.2-0.1-0.3-0.1c0,0,0,0,0,0c-0.6-0.4-1.3-0.8-1.9-1.2c-0.1-0.1-0.2-0.2-0.4-0.3c0,0-0.1,0-0.1,0   c-3.9-2.7-7.3-5.9-10.1-9.6l0,0c0-0.1-0.1-0.1-0.1-0.2c-0.1-0.1-0.1-0.1-0.2-0.2v0c-0.5-0.7-1-1.3-1.4-2c0-0.1-0.1-0.3-0.3-0.4   c0,0,0,0,0,0c-2.5-3.9-4.4-8.2-5.6-12.8c0,0,0,0,0,0c-0.3-0.9-0.5-1.9-0.6-2.9v0c0,0,0-0.1,0-0.1c0,0,0,0,0,0   c-0.5-2.6-0.7-5.3-0.7-8.1C31.8,47.8,51.2,28,75,27.5C95.7,28,113.1,43,117.2,62.6c0.2,1,0.4,2,0.5,2.9c0.3,2,0.4,4,0.4,6.1   C118.2,74.3,117.9,77,117.4,79.6z"/><path d="M75,65.8c5.6,0,10.2-4.6,10.2-10.2c0-5.6-4.6-10.2-10.2-10.2s-10.2,4.6-10.2,10.2C64.8,61.3,69.4,65.8,75,65.8z"/><path d="M81.4,68.5c-0.4,0-0.7,0.2-0.9,0.5L75,78.6L69.5,69c-0.2-0.3-0.5-0.5-0.9-0.5c-6.2,0-11.3,5.1-11.3,11.3v27.9   c0,0.6,0.4,1,1,1h4V93.6c0-1.7,1.3-3,3-3h19.4c1.7,0,3,1.3,3,3v15.2h4c0.6,0,1-0.4,1-1V79.8C92.7,73.6,87.6,68.5,81.4,68.5z"/></g></svg>
